. 
 
http://www.torrenting.com          :     Once & For all ;)


               www . Torrenting . Com 

(((((((((((((= Enjoy No RAR releases =))))))))))))))))))))


...................................NFO:....................................

.[img]http://img607.imageshack.us/img607/2513/younge.jpg[/img]


[color=green][size=3]General Info[/size][/color]
ENCODER: Kobe
Source Video: BD Disk
Source Audio: BD Disk 
Channel     : 6 channels 
IMDB        :http://www.imdb.com/title/tt1625346/ 



[color=green][size=3]Video[/size][/color]
ID                                       : 0
Format                                   : MPEG-4 Visual
Format profile                           : Advanced Simple@L5
Format settings, BVOP                    : 1
Format settings, QPel                    : No
Format settings, GMC                     : No warppoints
Format settings, Matrix                  : Default (H.263)
Muxing mode                              : Packed bitstream
Codec ID                                 : XVID
Codec ID/Hint                            : XviD
Duration                                 : 1h 33mn
Bit rate                                 : 2 102 Kbps
Width                                    : 1 280 pixels
Height                                   : 720 pixels
Display aspect ratio                     : 16:9
Frame rate                               : 23.976 fps
Color space                              : YUV
Chroma subsampling                       : 4:2:0
Bit depth                                : 8 bits
Scan type                                : Progressive
Compression mode                         : Lossy
Bits/(Pixel*Frame)                       : 0.095
Stream size                              : 1.38 GiB (84%)
Writing library                          : XviD 1.2.1 (UTC 2008-12-04)


[color=green][size=3]Audio[/size][/color]
ID                                       : 1
Format                                   : AC-3
Format/Info                              : Audio Coding 3
Mode extension                           : CM (complete main)
Codec ID                                 : 2000
Duration                                 : 1h 33mn
Bit rate mode                            : Constant
Bit rate                                 : 384 Kbps
Channel(s)                               : 6 channels
Channel positions                        : Front: L C R, Side: L R, LFE
Sampling rate                            : 48.0 KHz
Bit depth                                : 16 bits
Compression mode                         : Lossy
Stream size                              : 257 MiB (15%)
Alignment                                : Aligned on interleaves
Interleave, duration                     : 64 ms (1.53 video frames)
Interleave, preload duration             : 192 ms
Title                                    : BD Disk Audio 



[color=red][size=3]NOTE:[/size][/color]
Just a Straight forward rip from the Bd Disk, came out lookin really good

 

[color=Green][size=3]Greetz[/size][/color]
R3dRuM,rfcgazza,Killerhz,cooperman, Toffee, Our selves 

[img]http://i.imgur.com/I6Vyp.png[/img]
[img]http://i.imgur.com/uPOF0.png[/img]
[img]hhttp://i.imgur.com/uCnzr.jpg[/img]
[img]http://i.imgur.com/wNdTg.jpg[/img]

[img]http://i1134.photobucket.com/albums/m609/andy1andrew/KodeKing.jpg[/img]